<svg width="54" height="54" viewBox="0 0 54 54" fill="none" xmlns="http://www.w3.org/2000/svg">
<g clip-path="url(#clip0_189_94)">
<path fill-rule="evenodd" clip-rule="evenodd" d="M8 18C8 11.3726 13.3726 6 20 6C26.6275 6 32 11.3726 32 18C32 24.6275 26.6275 30 20 30C13.3726 30 8 24.6275 8 18Z" fill="#232323"/>
<path d="M33.0642 24.5911C32.9436 24.8127 32.9947 25.0892 33.2024 25.2383C34.7446 26.3453 36.653 27 38.719 27C43.8448 27 48 22.9706 48 18C48 13.0294 43.8448 9 38.719 9C36.653 9 34.7446 9.65469 33.2024 10.7618C32.9947 10.9109 32.9436 11.1872 33.0642 11.4089C34.1352 13.3771 34.7414 15.6199 34.7414 18C34.7414 20.3801 34.1352 22.6229 33.0642 24.5911Z" fill="#232323"/>
<path fill-rule="evenodd" clip-rule="evenodd" d="M7.20771 34.958C10.5789 33.4603 15.0022 33 20.4993 33C26.0013 33 30.4277 33.4612 33.8001 34.9622C37.4737 36.5972 39.7065 39.382 40.8768 43.3141C41.4253 45.157 40.0728 47 38.209 47H2.79484C0.928846 47 -0.426468 45.1542 0.123711 43.3079C1.29555 39.3753 3.53172 36.5913 7.20771 34.958Z" fill="#232323"/>
<path d="M33.918 30.1021C32.7581 30.1728 32.69 31.7021 33.7558 32.1568C36.6763 33.4032 38.8754 35.2379 40.4525 37.5796C41.7467 39.5013 43.7564 41 46.1034 41H51.0922C53.0736 41 54.5194 39.0679 53.8223 37.1804C53.7822 37.0718 53.7405 36.964 53.6973 36.8571C52.738 34.4799 51.0936 32.7298 48.6589 31.6143C46.3729 30.5671 43.5112 30.1348 40.1399 30.0042L40.0844 30.002H40.0292C38.0433 30.002 35.9692 29.977 33.918 30.1021Z" fill="#232323"/>
</g>
<defs>
<clipPath id="clip0_189_94">
<rect width="54" height="54" fill="white"/>
</clipPath>
</defs>
</svg>
