<svg width="60" height="60" viewBox="0 0 60 60" fill="none" xmlns="http://www.w3.org/2000/svg">
<path d="M47.5 32.5H32.5V17.5C32.5 16.837 32.2366 16.2011 31.7678 15.7322C31.2989 15.2634 30.663 15 30 15C29.337 15 28.7011 15.2634 28.2322 15.7322C27.7634 16.2011 27.5 16.837 27.5 17.5V32.5H12.5C11.837 32.5 11.2011 32.7634 10.7322 33.2322C10.2634 33.7011 10 34.337 10 35V42.5C10 43.163 10.2634 43.7989 10.7322 44.2678C11.2011 44.7366 11.837 45 12.5 45C13.163 45 13.7989 44.7366 14.2678 44.2678C14.7366 43.7989 15 43.163 15 42.5V37.5H45V42.5C45 43.163 45.2634 43.7989 45.7322 44.2678C46.2011 44.7366 46.837 45 47.5 45C48.163 45 48.7989 44.7366 49.2678 44.2678C49.7366 43.7989 50 43.163 50 42.5V35C50 34.337 49.7366 33.7011 49.2678 33.2322C48.7989 32.7634 48.163 32.5 47.5 32.5Z" fill="#232323"/>
<path d="M20 42.5V52.5C20 53.163 19.7366 53.7989 19.2678 54.2678C18.7989 54.7366 18.163 55 17.5 55H7.5C6.83696 55 6.20107 54.7366 5.73223 54.2678C5.26339 53.7989 5 53.163 5 52.5V42.5C5 41.837 5.26339 41.2011 5.73223 40.7322C6.20107 40.2634 6.83696 40 7.5 40H17.5C18.163 40 18.7989 40.2634 19.2678 40.7322C19.7366 41.2011 20 41.837 20 42.5ZM40 7.5C40 6.83696 39.7366 6.20107 39.2678 5.73223C38.7989 5.26339 38.163 5 37.5 5H22.5C21.837 5 21.2011 5.26339 20.7322 5.73223C20.2634 6.20107 20 6.83696 20 7.5V17.5C20 18.163 20.2634 18.7989 20.7322 19.2678C21.2011 19.7366 21.837 20 22.5 20H37.5C38.163 20 38.7989 19.7366 39.2678 19.2678C39.7366 18.7989 40 18.163 40 17.5V7.5ZM35 27.5H25C24.337 27.5 23.7011 27.7634 23.2322 28.2322C22.7634 28.7011 22.5 29.337 22.5 30V40C22.5 40.663 22.7634 41.2989 23.2322 41.7678C23.7011 42.2366 24.337 42.5 25 42.5H35C35.663 42.5 36.2989 42.2366 36.7678 41.7678C37.2366 41.2989 37.5 40.663 37.5 40V30C37.5 29.337 37.2366 28.7011 36.7678 28.2322C36.2989 27.7634 35.663 27.5 35 27.5ZM52.5 40H42.5C41.837 40 41.2011 40.2634 40.7322 40.7322C40.2634 41.2011 40 41.837 40 42.5V52.5C40 53.163 40.2634 53.7989 40.7322 54.2678C41.2011 54.7366 41.837 55 42.5 55H52.5C53.163 55 53.7989 54.7366 54.2678 54.2678C54.7366 53.7989 55 53.163 55 52.5V42.5C55 41.837 54.7366 41.2011 54.2678 40.7322C53.7989 40.2634 53.163 40 52.5 40Z" fill="#232323"/>
</svg>
