<svg width="30" height="30" viewBox="0 0 30 30" fill="none" xmlns="http://www.w3.org/2000/svg">
<path d="M2.43896 9.24592C2.23389 9.14332 2.08862 9.03223 2.00317 8.91258C1.91772 8.79293 1.875 8.63051 1.875 8.42537C1.875 8.22023 1.91772 8.05787 2.00317 7.93816C2.08862 7.81851 2.23389 7.70742 2.43896 7.60482L13.3252 2.16886C13.7695 1.95233 14.3278 1.85546 15 1.87826C15.6722 1.85546 16.2305 1.95233 16.6748 2.16886L27.561 7.60482C27.7661 7.70742 27.9114 7.81851 27.9968 7.93816C28.0823 8.05787 28.125 8.22023 28.125 8.42537C28.125 8.63051 28.0823 8.79293 27.9968 8.91258C27.9114 9.03223 27.7661 9.14332 27.561 9.24592L16.6748 14.6819C16.2305 14.8984 15.6722 14.9953 15 14.9725C14.3278 14.9953 13.7695 14.8984 13.3252 14.6819L2.43896 9.24592ZM2.43896 22.4085C2.23389 22.3059 2.08862 22.1948 2.00317 22.0752C1.91772 21.9555 1.875 21.7931 1.875 21.588C1.875 21.3828 1.91772 21.2204 2.00317 21.1008C2.08862 20.9811 2.23389 20.87 2.43896 20.7674L5.17334 19.3999L13.3252 23.4684C13.7809 23.6849 14.3392 23.7761 15 23.7419C15.6608 23.7761 16.2191 23.6849 16.6748 23.4684L24.8266 19.3999L27.561 20.7674C27.7661 20.87 27.9114 20.9811 27.9968 21.1008C28.0823 21.2204 28.125 21.3828 28.125 21.588C28.125 21.7931 28.0823 21.9555 27.9968 22.0752C27.9114 22.1948 27.7661 22.3059 27.561 22.4085L16.6748 27.8445C16.2191 28.061 15.6608 28.1522 15 28.118C14.3392 28.1522 13.7809 28.061 13.3252 27.8445L2.43896 22.4085ZM2.43896 15.8443C2.23389 15.7417 2.08862 15.6306 2.00317 15.5109C1.91772 15.3913 1.875 15.2289 1.875 15.0238C1.875 14.8187 1.91772 14.6562 2.00317 14.5366C2.08862 14.4169 2.23389 14.3058 2.43896 14.2032L5.17334 12.8357L13.3252 16.9041C13.7809 17.1207 14.3392 17.2119 15 17.1776C15.6608 17.2119 16.2191 17.1207 16.6748 16.9041L24.8266 12.8357L27.561 14.2032C27.7661 14.3058 27.9114 14.4169 27.9968 14.5366C28.0823 14.6562 28.125 14.8187 28.125 15.0238C28.125 15.2289 28.0823 15.3913 27.9968 15.5109C27.9114 15.6306 27.7661 15.7417 27.561 15.8443L16.6748 21.2803C16.2191 21.4968 15.6608 21.588 15 21.5538C14.3392 21.588 13.7809 21.4968 13.3252 21.2803L2.43896 15.8443Z" fill="#232323"/>
</svg>
